<?xml version="1.0" encoding="UTF-8"?> <!-- Generator: Adobe Illustrator 23.0.2, SVG Export Plug-In . SVG Version: 6.00 Build 0) --> <svg xmlns="http://www.w3.org/2000/svg" xmlns:xlink="http://www.w3.org/1999/xlink" version="1.1" id="Capa_1" x="0px" y="0px" viewBox="0 0 718 160" style="enable-background:new 0 0 718 160;" xml:space="preserve"> <style type="text/css"> .st0{fill:#626262;} .st1{fill:#96C225;} </style> <g> <path class="st0" d="M15.7,37.2C28.3,30.3,41,23.4,53.6,16.5c5-2.7,10-5.7,15.1-8.3C77.3,4,84.4,6.9,91.9,11 c14.6,8.1,29.3,16.1,43.9,24.2c7,3.9,12.3,8.5,12.6,16.9c0.2,5.9,0,11.8,0,17.6v26.8c0,5.2,0.8,11.3-0.5,16.4 c-2.1,7.9-9.3,10.9-16,14.6c-7.9,4.3-15.8,8.5-23.7,12.8c-6.5,3.5-13.1,7.1-19.6,10.6c-7.2,3.9-14.3,3.7-21.4-0.2 C52.5,142.7,38,134.9,23.5,127c-6.6-3.6-13.5-6.5-15.9-14c-1.6-5.1-0.7-11.5-0.7-16.8c0-14.7-0.5-29.5,0-44.2 C7,45.8,10,40.6,15.7,37.2c2.6-1.5,0.2-5.5-2.4-3.9C4.6,38.4,2,46.2,2,55.3v25.6v24.5c0,8.8,2.9,16.5,11.3,21.4 c13.8,8,28.2,15.3,42.3,22.9c5.3,2.9,11.1,6.9,17.2,8.2c8.7,1.9,15.5-1.7,22.6-5.6c15.2-8.2,30.5-16.3,45.6-24.6 c7.8-4.3,12.1-11.2,12.2-19.8c0.1-7.1,0-14.3,0-21.4V59.1c0-7.4,0.3-14.5-5-20.7c-4-4.7-10.5-7.4-15.9-10.4 c-8.8-4.8-17.6-9.7-26.4-14.5c-5.5-3-10.9-6.2-16.5-9.1C80.7-0.1,72,1.3,63.8,5.8C48.3,14.2,32.9,22.6,17.5,31 c-1.4,0.8-2.8,1.5-4.2,2.3C10.6,34.8,13,38.7,15.7,37.2"></path> <path class="st1" d="M131.2,70.7c-1.8-8.9-6.7-17.6-12.9-24.5c-12.9-14.5-34.6-20-53.9-15.3c-20.2,4.9-36.1,21.8-39.8,40.9 c-3.9,20,6.9,41,25.2,51.7c22.3,13.1,54.4,8.2,70.5-11.6c1-1.2,0.2-3.1-1.1-3.9L96.8,94.7c-1.4-0.8-3.3-0.3-4.1,1 c-3.3,5.1-11.4,6.8-17.2,6.1c-5.8-0.7-11.4-4.4-14.5-9.1c-2-3.1-7.2-0.3-5.2,2.8c8,12.1,29.8,17.1,40.3,5.4l17.2,10.2 c-13.9,14.6-39.4,18.1-57.5,9c-17.4-8.7-28.7-27.9-25.4-46.4c3-17,16.5-32.3,34.4-37.1c17.2-4.6,36.6-0.1,48.5,12.6 c5.1,5.4,9.2,12.3,11.3,19.4H62c-3.9,0-3.9,5.6,0,5.6h66.4C130.4,74.2,131.6,72.5,131.2,70.7"></path> <path class="st1" d="M49.4,71.4c0-4.3,3.8-7.9,8.4-7.9c4.6,0,8.4,3.5,8.4,7.9c0,4.3-3.8,7.9-8.4,7.9C53.1,79.3,49.4,75.8,49.4,71.4 "></path> <path class="st0" d="M200.3,79.8h17.9c-0.3-5.7-3.2-8.5-8.9-8.5C203.6,71.3,200.6,74.1,200.3,79.8 M192.7,98.8 c-4-3.5-5.9-8.6-5.9-15.2c0-6.6,2-11.7,6-15.2c4-3.5,9.5-5.3,16.6-5.3c7.1,0,12.6,1.7,16.5,5.2c4,3.5,5.9,8.4,5.9,14.9v2.1 c0,0.6-0.2,1.2-0.7,1.6c-0.4,0.4-1,0.6-1.7,0.6h-29c0.3,3,1.2,5.1,2.7,6.5c1.6,1.3,4,2,7.5,2c3.4,0,5.8-0.7,7-2.2 c1.3-1.4,2.8-2.2,4.7-2.2h5.7c0.7,0,1.3,0.2,1.7,0.6c0.4,0.4,0.7,1,0.7,1.6c0,6.9-7,10.3-21.1,10.3 C202.2,104.1,196.7,102.3,192.7,98.8"></path> <path class="st0" d="M237.2,101.2V53.8c0-0.6,0.2-1.2,0.7-1.6c0.4-0.4,1-0.6,1.7-0.6h8.6c0.7,0,1.2,0.2,1.7,0.6 c0.4,0.4,0.7,1,0.7,1.6v47.3c0,0.6-0.2,1.1-0.7,1.6c-0.5,0.4-1,0.6-1.7,0.6h-8.6c-0.7,0-1.2-0.2-1.7-0.6 C237.4,102.3,237.2,101.8,237.2,101.2"></path> <path class="st0" d="M269.4,79.8h17.9c-0.3-5.7-3.2-8.5-8.9-8.5C272.7,71.3,269.7,74.1,269.4,79.8 M261.8,98.8 c-4-3.5-5.9-8.6-5.9-15.2c0-6.6,2-11.7,6-15.2c4-3.5,9.5-5.3,16.6-5.3c7.1,0,12.6,1.7,16.5,5.2c4,3.5,5.9,8.4,5.9,14.9v2.1 c0,0.6-0.2,1.2-0.7,1.6c-0.4,0.4-1,0.6-1.7,0.6h-29c0.3,3,1.2,5.1,2.7,6.5c1.6,1.3,4,2,7.5,2c3.4,0,5.8-0.7,7-2.2 c1.3-1.4,2.8-2.2,4.7-2.2h5.7c0.7,0,1.3,0.2,1.7,0.6c0.4,0.4,0.7,1,0.7,1.6c0,6.9-7,10.3-21.1,10.3 C271.3,104.1,265.7,102.3,261.8,98.8"></path> <path class="st0" d="M326.7,104.1c-7.2,0-12.8-1.7-16.8-5.2c-4-3.5-6-8.6-6-15.3c0-6.7,2-11.8,6-15.3c4-3.5,9.5-5.2,16.6-5.2 c7.1,0,12.6,1.1,16.4,3.2c3.8,2.1,5.7,5.2,5.7,9.4c0,0.7-0.2,1.2-0.7,1.6c-0.5,0.4-1,0.6-1.7,0.6h-5.7c-1.7,0-3.2-0.9-4.4-2.6 c-1.5-2.3-4.2-3.4-8-3.4c-3.8,0-6.5,0.9-8.1,2.8c-1.5,1.8-2.3,4.8-2.3,9s0.8,7.2,2.4,9c1.6,1.9,4.3,2.8,8.2,2.8 c3.9,0,6.6-1.1,8.1-3.4c1.2-1.8,2.7-2.7,4.4-2.7h5.7c0.7,0,1.3,0.2,1.7,0.6c0.4,0.4,0.7,0.9,0.7,1.6c0,4.1-1.9,7.3-5.7,9.4 C339.4,103,333.9,104.1,326.7,104.1"></path> <path class="st0" d="M373.6,95.5l5.3-0.4h1.4c0.7,0,1.3,0.2,1.7,0.6c0.4,0.4,0.7,0.9,0.7,1.6v3.9c0,0.5-0.2,1-0.7,1.4 c-0.5,0.4-1,0.7-1.7,0.8c-2.6,0.5-6,0.7-10.2,0.7c-11,0-16.6-5.4-16.6-16.2v-34c0-0.7,0.2-1.2,0.7-1.6c0.4-0.4,1-0.6,1.7-0.6h8.6 c0.7,0,1.2,0.2,1.7,0.6s0.7,1,0.7,1.6v12.1h10.8c0.7,0,1.2,0.2,1.7,0.6c0.4,0.4,0.7,0.9,0.7,1.6v4.3c0,0.7-0.2,1.2-0.7,1.6 c-0.4,0.4-1,0.6-1.7,0.6h-10.8v13.2c0,2.5,0.6,4.4,1.8,5.7S371.5,95.5,373.6,95.5"></path> <path class="st0" d="M416.5,73l-5.9-0.2c-3.5,0-6.8,1.8-9.9,5.3v23.1c0,0.7-0.2,1.2-0.7,1.6c-0.4,0.4-1,0.6-1.7,0.6h-8.6 c-0.7,0-1.3-0.2-1.7-0.6c-0.4-0.4-0.7-0.9-0.7-1.6V66.1c0-0.7,0.2-1.2,0.7-1.6c0.4-0.4,1-0.6,1.7-0.6h8.6c0.7,0,1.3,0.2,1.7,0.6 c0.4,0.4,0.7,1,0.7,1.6v2.3c2.6-1.8,5.1-3.1,7.6-4c2.4-0.9,5.6-1.3,9.5-1.3c0.7,0,1.3,0.2,1.7,0.6c0.4,0.4,0.7,0.9,0.7,1.6v5.5 c0,0.7-0.2,1.2-0.7,1.6c-0.4,0.4-1,0.6-1.7,0.6H416.5z"></path> <path class="st0" d="M437.3,74.2c-1.6,1.9-2.4,5.1-2.4,9.4c0,4.3,0.8,7.4,2.4,9.4c1.6,2,4.1,3,7.5,3s5.9-1,7.6-3 c1.6-2,2.4-5.1,2.4-9.4c0-4.3-0.8-7.4-2.4-9.4c-1.6-1.9-4.1-2.9-7.6-2.9S438.9,72.3,437.3,74.2 M427.5,98.9c-4-3.5-6-8.6-6-15.3 c0-6.8,2-11.9,6-15.3c4-3.5,9.8-5.2,17.3-5.2c7.5,0,13.3,1.7,17.3,5.2c4,3.5,6,8.6,6,15.3c0,6.8-2,11.9-6,15.3 c-4,3.5-9.8,5.2-17.3,5.2C437.3,104.1,431.5,102.4,427.5,98.9"></path> <path class="st1" d="M473.4,101.2V66.1c0-0.7,0.2-1.2,0.7-1.6c0.4-0.4,1-0.6,1.7-0.6h8.6c0.7,0,1.3,0.2,1.7,0.6 c0.4,0.4,0.7,1,0.7,1.6v2.3c1.8-1.7,3.7-3,5.5-3.9c1.8-0.9,3.9-1.4,6.5-1.4c6,0,10.5,2.3,13.6,6.9c4.8-4.6,9.7-7,14.7-6.9 c5,0,9,1.4,11.9,4.3c2.9,2.8,4.4,7.2,4.4,13.1v20.7c0,0.7-0.2,1.2-0.7,1.6c-0.4,0.4-1,0.6-1.7,0.6h-8.6c-0.7,0-1.3-0.2-1.7-0.6 c-0.4-0.4-0.7-0.9-0.7-1.6V80.5c0-5.8-2.2-8.7-6.7-8.6c-2.7,0-5.5,1.8-8.4,5.5c0.2,1,0.2,2.1,0.2,3.1v20.7c0,0.7-0.2,1.2-0.7,1.6 c-0.4,0.4-1,0.6-1.7,0.6h-8.6c-0.7,0-1.3-0.2-1.7-0.6c-0.4-0.4-0.7-0.9-0.7-1.6V80.5c0-5.8-2.2-8.7-6.7-8.6c-2.9,0-5.6,1.7-8.2,5.2 v24.2c0,0.7-0.2,1.2-0.7,1.6c-0.5,0.4-1,0.6-1.7,0.6h-8.6c-0.7,0-1.3-0.2-1.7-0.6C473.7,102.4,473.4,101.8,473.4,101.2"></path> <path class="st1" d="M563.6,88.3c-1,0.8-1.6,1.9-1.6,3.2c0,1.3,0.5,2.4,1.6,3.2c1.1,0.8,2.6,1.3,4.6,1.3c4,0,7.8-1.1,11.4-3.3V87 h-11.8C566,87,564.6,87.4,563.6,88.3 M553.7,100.8c-3.4-2.2-5.1-5.3-5.1-9.4c0-4,1.7-7.2,5.1-9.3c3.4-2.2,7.8-3.2,13.2-3.2h12.8 c0-2.8-0.6-4.8-1.9-5.9c-1.3-1.1-3.5-1.7-6.6-1.7c-3.1,0-5.4,0.7-6.6,2.2c-1.3,1.5-2.8,2.2-4.7,2.2h-5.7c-0.7,0-1.3-0.2-1.7-0.6 c-0.4-0.4-0.7-0.9-0.7-1.6c0-6.9,7-10.4,21-10.4c6.1,0,11,1.3,14.7,3.8c3.7,2.6,5.5,6.5,5.5,11.9v22.3c0,0.7-0.2,1.2-0.7,1.6 c-0.4,0.4-1,0.6-1.7,0.6h-7.4c-0.7,0-1.3-0.2-1.7-0.6c-0.4-0.4-0.7-0.9-0.7-1.6v-1.1c-4.1,2.7-8.7,4.1-14,4.1 C561.5,104.1,557.1,103,553.7,100.8"></path> <path class="st1" d="M600.7,101.2V66.1c0-0.7,0.2-1.2,0.7-1.6c0.4-0.4,1-0.6,1.7-0.6h8.6c0.7,0,1.2,0.2,1.7,0.6 c0.4,0.4,0.7,1,0.7,1.6v2.3c4.4-3.5,9.1-5.2,14.1-5.2c5,0,9.1,1.4,12.2,4.3c3.1,2.9,4.7,7.2,4.7,13.1v20.7c0,0.6-0.2,1.1-0.7,1.6 c-0.4,0.4-1,0.6-1.7,0.6h-8.6c-0.7,0-1.2-0.2-1.7-0.6c-0.5-0.4-0.7-0.9-0.7-1.6V80.5c0-5.8-2.5-8.6-7.4-8.6 c-3.2,0-6.7,1.7-10.3,5.2v24.2c0,0.6-0.2,1.1-0.7,1.6c-0.5,0.4-1,0.6-1.7,0.6h-8.6c-0.7,0-1.2-0.2-1.7-0.6 C600.9,102.3,600.7,101.8,600.7,101.2"></path> <path class="st1" d="M656.2,56l1.9-6.8c1-2.8,2.7-4.2,5-4.2h3.5c1.7,0,2.8,0.5,3.3,1.5c0.2,0.4,0.3,0.9,0.3,1.4 c0,0.6-0.3,1.2-0.8,1.9l-4.2,6.8c-1.4,2.3-3,3.4-4.7,3.4h-1.8c-1.9,0-2.8-0.8-2.8-2.4C655.9,57.3,656,56.7,656.2,56 M652.8,101.2 V66.9c0-1.5,0.8-2.2,2.4-2.2h8.6c1.6,0,2.3,0.7,2.3,2.2v34.3c0,1.5-0.8,2.2-2.3,2.2h-8.6C653.6,103.4,652.8,102.6,652.8,101.2"></path> <path class="st1" d="M686.6,88.3c-1,0.8-1.6,1.9-1.6,3.2c0,1.3,0.5,2.4,1.6,3.2c1.1,0.8,2.6,1.3,4.6,1.3c4,0,7.8-1.1,11.4-3.3V87 h-11.8C689,87,687.6,87.4,686.6,88.3 M676.8,100.8c-3.4-2.2-5.1-5.3-5.1-9.4c0-4,1.7-7.2,5.1-9.3c3.4-2.2,7.8-3.2,13.2-3.2h12.8 c0-2.8-0.6-4.8-1.9-5.9c-1.3-1.1-3.5-1.7-6.6-1.7c-3.1,0-5.4,0.7-6.6,2.2c-1.3,1.5-2.8,2.2-4.7,2.2h-5.7c-0.7,0-1.3-0.2-1.7-0.6 c-0.5-0.4-0.7-0.9-0.7-1.6c0-6.9,7-10.4,21-10.4c6.1,0,11,1.3,14.7,3.8c3.7,2.6,5.5,6.5,5.5,11.9v22.3c0,0.7-0.2,1.2-0.7,1.6 c-0.4,0.4-1,0.6-1.7,0.6h-7.4c-0.7,0-1.3-0.2-1.7-0.6c-0.4-0.4-0.7-0.9-0.7-1.6v-1.1c-4.1,2.7-8.7,4.1-14,4.1 C684.5,104.1,680.2,103,676.8,100.8"></path> </g> </svg> 